<?xml version="1.0" encoding="UTF-8"?>
<svg id="Calque_2" data-name="Calque 2" xmlns="http://www.w3.org/2000/svg" viewBox="0 0 426.53 80.2">
  <defs>
    <style>
      .cls-1 {
        stroke-width: 0px;
      }
    </style>
  </defs>
  <g id="svg5">
    <g id="layer1">
      <path id="path14305-9" class="cls-1" d="m296.56,21.15c-.62-.22-1.18-.67-2.04-.95-.8-.15-1.99-.08-2.84-.14-.92.14-1.84-.06-2.84-.19-.4-.12-.95-.19-1.53-.21h0c-.58-.02-1.19,0-1.71.06-.08,0,.21.28-.02.1-1.24-.01-2.46-.03-3.62.16-1.11-.12-1.59-.1-2.8.13-.93.29-1.92.1-2.81.22-.99.25-1.44.45-2.17.79-.72.31-2.19.32-2.66.58-.77.36-1.43.98-1.86,1.34-.94.43-1.3.86-1.96,1.24-.62.4-1.03.42-1.51,1.18-.34.31-.74.45-1.43,1.11-.32.26-.89.92-1.17,1.58-.22.59-.59,1.31-.9,1.78-.37.56-.75.98-.88,1.69-.1.56-.13,1.27-.49,1.94-.19.64-.39,1.33-.38,1.98-.22.6-.16,1.28-.13,2.11-.01.79-.51,1.98-.46,2.6.26.06.85-.15.89-.29-.04-.09.86-.54.85-.39-.03.28.67.34.85.28-.33.12,1.26.22,1.12,0-.07.16.99.01.89.03.02,0,.95.07.89-.06-.02-.11.81.14.7.13-.09.18,1.09-.23,1.03-.25.11.2.65-.32.74,0-.15.03.94.52.85.23-.12.11.84-.12.95-.2-.12-.08.45.01.71.14.2,0,.91-.18,1.03-.06-.03.1.58.16.53.07-.13-.03,1.39-.2,1.33-.1.06-.02.63-.09.77-.09.17-.56,0-.3.07-.71.05-.14.14-.6.4-.75-.02-.43.07-.52.15-.83.11-.42.22-1.13.21-1.15,0-.24.39-.32.48-.67.16,0,.12-.48.33-.69.17-.38.3-.6.69-.79.46-.05.44-.1.68-.5.34-.11.32-.02.63-.25.13-.28.39-.63.74-.85.18-.23.43.25.59,0,.42.12.85-.68,1.17-.62.3-.13,0-.33.44-.36.18-.18,1.06-.06,1.3-.03.19.17.96-.39,1.17-.35.53-.09.82.32,1.2.15.32.22.85-.13,1.17.17.46.03.76-.03.96-.08.15.29.25.44.82.13.4.09.75.14,1.16.37.64-.13.4-.07.85.1.37.05.17.02.48.21.4,0,.96.33.89.41-.19.04.74.21.81.48.26.21.17-.08.51-.04.11.27.1.56.42.52.17.01.23.65.52.8-.19.09.1.24.44.31,0,.27.22.29.31.57.18.14.18.25.27.71.11.42-.03.43-.11.57.03.16.19.59.31.8-.14.08.21.5-.04.73-.03-.05-.18.33-.22.52-.2.37-.21.24-.12.85.09.5-.2.44-.32.32.03.26.06.62-.06.49,0,.35-.37.58-.44.6-.06.32.11.07-.28.25-.1.12-.64.2-.73.32-.13-.1-.34.25-.57.48-.08.06-.07.07-.12.11.46-.01.93-.03.93-.19-.04-.16,1.53.23,1.53.05.06.26,1.6-.34,1.55,0,.08.11,1.99-.13,1.91.06.14-.1,1.57.09,1.59.1-.06.01,1.44-.31,1.46-.15,0-.05,2.05.28,2.02.16-.02.07,1.59-.28,1.54-.2.03.17,1.51.11,1.55.08-.3.03,1.52.01,1.63-.02-.1-.15,1.81-.03,1.8-.21.05,0,.41.06.7.1.03-.9-.06-1.65-.17-2.3-.03-.93-.14-1.71-.07-2.43-.15-.93-1-1.38-.88-2.14-.03-.89.29-1.72-.11-2.28-.17-.9-.51-1.32-.79-1.87-.36-.41-.68-1.25-1.04-1.96-.39-.68-.35-.77-1.06-1.49-.25-.41-.61-1.27-1.17-1.91-.61-.29-1.25-.82-1.67-1.18-.28-.22-.66-.48-1.06-.74-1.15-.67-3.6-1.92-5.32-2.38h0Zm-134.36-1.17s.05.06.08.09c-.08,0-.16.03-.25.03-.97.16-2.15.21-2.99.24-.72.11-1.78.58-2.56.64-.71.12-1.41.66-2.24.9-.86.4-1.24.83-1.81.95-.77.43-1.26.75-1.86,1.22-.42.51-1.64.59-1.99,1.21-.24.3-.73.68-1.07,1.3-.59.54-.59,1.5-1.24,1.9.07.36-.47,1.08-.96,1.52-.34.44-.45,1.12-.8,1.71.08.51-.54,1.33-.64,1.8-.15.42-.13,1.53-.36,2.14-.17.57.09,1.2-.07,2.06.03.76.05,1.25-.19,2.04.17-.18.83-.25.93-.01.04.11.79.2.85.21-.03.13.97-.05.79.05.16.15.66-.02.77-.27-.01.16.95,0,1.03.21.1.15.54.12.68.02,0-.15.86.16.98-.04.04.25.9-.04.8.06-.2.3.74-.32.82-.29-.1,0,1.39.21,1.32.18-.38-.22.36-.3.42-.21-.09.11,1.02.23.96.08-.13,0,.8.24.89.08-.06.05,1.25-.07.88-.22.1-.08.88-.13.86.06-.17-.13.67.7.91.51.01-.16.21-.92.03-1.17,0-.55.26-.72.35-1.12-.11-.13.22-.47.29-.54.25-.19-.07-.88.24-.99-.17-.57.31-.65.45-.98.06-.47.41-.24.42-.4,0-.14.63-.39.53-.82.17-.45.31-.2.56-.49.28-.06.78-.36.88-.56-.12-.15.12-.04.58-.25.13-.18.39-.4.91-.6.28-.21.39.06.86.02.3.17.34-.44.74-.7.22-.08.91-.29,1.24-.18.29-.22.65-.27,1.24,0,.46.08.94-.26,1.3-.11.29.06.6-.1.81-.07.51.25.77.32,1.26.26.11-.04.57.03,1.08.3.41.13.56-.36.77-.16.12.31.57.37.86.31.29,0,.43.22.72.28.38.09.03.44.39.49.23.2,1.13.23,1.05.2.39.13.09.36.18.26-.03-.03.74.65.94.56.03.09.22.36.37.59.22.36.44-.04.51.35.02-.03-.03.57.1.67.21.3.32.75.19.92-.17.47.04.02.11.21.09.31-.13.68,0,.99-.23.31-.07.58-.13.86.02.33.47.14.36.23.09.23-.8.56-.57.9-.06-.11.56.48.48.42-.06.1-.67.56-.82.57-.33.06-.12.14-.26.22-.08.21-.48.52-.64.58.1.08.07.32-.28.43-.11.12-.07.1-.38.28-.22.03-.37.06-.65.14.25.03.6.07.53.07-.2-.01,1.7-.33,1.52-.23-.3.06,1.79.2,1.85.18.22-.23,1.84-.08,1.83-.12-.01.22,1.5-.03,1.57-.16-.07-.15,1.91-.12,1.83.1.21.21,1.6.02,1.58.12.23,0,1.87.14,1.72.18-.23-.12,1.51-.1,1.56-.21-.22-.18,2.05-.24,1.95-.07-.02,0,1.74,0,1.65-.01-.07.06.36.04.78-.01.03-.82-.11-1.58.06-2.25-.09-.73-.41-1.98-.51-2.57-.05-.87.14-1.77-.06-2.5-.18-1-.9-1.42-.78-2.07-.06-.6-.19-1.04-.48-1.92-.24-.63-.85-.76-1.15-1.5-.55-.63-.69-1.54-1.2-2.04-.43-.69-.73-1.23-1.37-1.43-.73-.37-.74-.87-1.42-1.3-.65-.69-.89-.51-1.57-1.15-.7-.5-1.39-1.03-2.15-1.26-.66-.18-1.63-.45-2.27-.73-.84-.13-1.88-.93-2.7-.84-.89-.45-1.54-.48-2.46-.34-1.03-.25-1.9-.05-3.07-.16-.88.08-1.73-.04-2.56-.11-.85-.49-4.78.14-6.67.23h0ZM13.52,0h0c-.23-.05-1.07.31-.95.38-.11,0-.82-.26-.97-.17-.01-.05-.7.23-.84.13-.32-.05-1.03.06-.89.21-.13.01-1.06.02-.99-.09-.14.06-1.37-.04-1.32-.14.25.04-.53.41-.67.26.06-.2-.67-.3-.77-.41.06-.24-1.12,0-1.21.25-.07.1-.87-.57-.69-.29-.02.06-1.28.08-.99.14.04-.09-1.18,0-1.11.06-.06-.06-.91-.27-1.01-.09.48.15-.53.28-.65.26C.58.47-.02,4.86,0,5.04c-.02.1.51,5.24.26,5.01.07.06.23,4.89.05,4.78-.15-.11-.39,4.67-.1,4.78.12-.29-.07,5.16-.14,5.16.03.14.4,5.02.27,4.77,0,.1-.42,5.06-.23,4.98-.07.11,0,4.7.15,4.85,0,0-.04,1.21-.06,2.43.45-.14,1.5-.28,1.56-.19.24.03,1.39.37,1.49.45.03-.05,1.74-.31,1.64-.16-.06-.07,1.52.06,1.7.02,0-.08,1.79.16,1.92.04,0-.09,1.4.08,1.56.02.08-.24,1.07-.03,1.42-.12-.02.05,1.74.33,1.88.26.05.04,1.78.01,1.58.06,0-.07.18-.11.41-.13-.06-.62-.07-1.36-.02-1.5.24.04.29-2.98.28-3.14.07-.05-.05-2.79-.05-2.49.15.03.25-2.33.2-2.57-.01.16-.59-3.03-.56-2.73.03-.07.18-2.61.21-2.72-.13-.1-.2-2.67-.08-2.67,0,.06.28-2.65.16-2.56.17.12.23-2.58.27-2.72.04.15-.11-2.34-.28-2.55-.17,0-.18-2.66,0-2.6.1-.06-.02-2.98,0-3.11.15-.07.11-2.05.24-2.23.18-.07-.22-2.73-.3-2.81-.17.13-.02-2.54.09-2.52-.07.04.04-2.85.32-2.85-.15-.31-1.03.17-1.07-.09-.09.15-1.02.14-1.16-.13,0-.03-.02-.04-.06-.05h0Zm361.11.13s0,0,0,0c0,0,0,0,0,0h0Zm0,0c-1.09.16-1.62.29-2.74.5-.82.05-1.91-.22-2.93-.14-.82.05-1.57.35-2.33.47-.82.31-1.64.36-2.33.71-.85.12-2.05.51-2.61.76-.59.4-.98.35-1.67.71-.81.58-1.48.59-1.95,1.06-.67.31-1.38.94-1.73,1.54-.63.41-.78.74-1.36,1.14-.51.59-.73.95-.99,1.47-.42.39-1.02,1.26-1.13,1.84-.24.67-.53,1.23-.76,1.95-.37.65-.28,1.04-.91,1.83-.16.69-.05,1.4-.32,2.22-.23.66-.47,1.81-.26,2.39-.06.94-.42,1.77-.29,2.63-.15.31-.16-.04-.28-.11-.14-.22-.54.25-.66,0,.16.2-.54.26-.4.14.09.09-.95-.2-.87-.19-.1.03-.84-.04-.67-.01.06.12-.63.29-.51.22-.02.07-.32.18-.33-.12-.01.15-.5.14-.39.04.1.34-.61-.06-.56,0-.12.04-.11.34-.3.02-.06-.1-.8.17-.74.18-.07-.08-.99-.11-.67.13-.18.01-.44-.17-.5-.29-.04.07-.45.35-.44.09.19-.16-.69-.39-.59-.14-.15,0-.31-.05-.43,0-.01-.19-.08.96-.24.8-.03-.17.29.47.2.64.13-.16-.05.44-.04.45.14-.12-.05.87-.09.73-.12-.17.1.74-.05.69.08-.12-.1.59.05.48-.11-.07.37.67.33.77-.01,0-.03,0-.05,0,.03.02.05.02.05,0,.14.04-.22.57-.16.69,0,.12-.25.68,0,.67-.04-.06.11,1.27.07.95.05.14.1.67.02.52-.23.23-.39.39-.5.53,0-.04.08.93.25.88-.07.21.02.84.1.86.14-.05-.13.45-.19.55.04,0,.62.65.5.56-.03.22.17.02.15,0,.02-.04.57.16.43.14-.17.03.97-.17.68,0,.08.03.42-.49.49-.21,0-.1.72-.01.74.1-.03.23.08.17.29.14-.04-.23.83-.03.69-.15-.01.04.25.11.33.14.25-.12.83-.08.85-.17-.02-.16.25-.21.35-.08-.06-.19.51.12.68.03-.12.26.38.26.22.03.18-.07.56-.11.62-.17.14-.05.61.17.62.36.12.08.62-.5.58-.51.09.02.56-.01.45.02.17.1.03,2.7.08,3.03-.12.35-.24,2.8-.2,3.02-.05-.38.35,2.92.37,3.09-.12.07-.19.74-.24,1.42.4-.19.85-.45.91-.33.14-.09,1.75.33,1.72.2-.18.15,1.49.01,1.57.11-.02-.22,1.68-.22,1.61-.11-.2.06,1.93-.39,1.92-.2-.2-.21,1.41.2,1.47.2.09.36,1.55-.07,1.67-.09-.04.19,1.9-.4,1.8-.2-.02.07,1.65.18,1.66.18.08-.12.32-.1.58-.05-.02-.74-.04-1.5-.02-1.45-.09-.03-.08-2.71-.07-2.7.05-.05-.23-2.85-.06-2.87.03.18.15-2.72.17-3.07.02,0,.49.1.4.17-.12.08.85-.07.63-.16.12.14.52.47.47.33.07-.04.75-.57.79-.35.14-.04.66.05.77.11.13.13.76.24.71.1.04-.08.34-.37.46-.21.07-.08.8.17.76.14-.08-.09.37-.12.34-.18-.12-.07.58.22.8.18-.04-.14.65.17.53.1-.07.05.93-.27.71-.31-.05-.07.42.31.38.36.09,0,.48-.03.59,0,0-.16.89-.05.88.02-.03-.05.45-.14.53-.07,0-.15-.26-.58-.15-.66-.03-.14-.02-.61.08-.75-.03-.2-.1-.73-.16-.8.09-.11.13-.47.11-.39-.07.03.05-.5.03-.75.2-.04.09-.64.09-.55.1-.17,0-.71-.03-.81-.08.11.03-.59-.09-.75-.32.04.24-.99.15-.99.14-.07-.15-.37-.15-.5.06-.02-.09-.56,0-.51-.04.12.08-.57.3-.71.15,0-.6-.56-.47-.56.01-.03.22-.47.12-.53.19,0,.44-.81.3-.92.1-.02-.06-.42-.03-.42-.15-.35-1-.45-.77-.36-.06-.05-.7.03-.68.04,0-.08-.55-.22-.48-.09.15.3-.89.29-.73.28-.03-.05-.73.16-.56.02.07,0-1-.09-.9-.17.16.35-.37.11-.31.2-.08.2-.86-.47-.82-.15-.07.05-.44.36-.47.03.12.04-.48-.05-.54-.02-.07-.19-.67-.03-.69.06-.07.1-.8.02-.6-.11.06.16-.57.12-.47-.04-.02.3-.54.28-.66.2-.14.39-.4.22-.62-.07-.03.13-.52.14-.46.05.01-.52.15-1.1.16-1.31.1-.23-.15-1.15-.25-1.26.12-.28.27-.44.19-.69-.1-.21,0-.35,0-.71-.12-.55.46-.57.44-1.03.01-.3.15-.54.23-.65.25-.09-.1-.81.26-.88.25-.06.47-.21.69-.26.27-.42.21.08.44-.13.08-.07.34-.96.62-.95.2-.29.58-.01.93-.04.49-.08.29.06.71-.15.32-.2,1.03-.26,1.16-.37.36.03.61-.25.94-.23.19.1.84-.21,1.47-.05.47-.16.66.22,1.43.09-.01-.02-.24-.39-.19-.64.07.03-.03-.69.06-.91-.21-.05.08-.89-.07-.78.16.03-.46-.62-.14-.74.11-.07.04-1.16.21-1.08.21-.05.15-.52.04-.57.13.17-.14-.5-.11-.54-.16-.03-.19-1.13-.02-1.13-.08-.03.36-.3.23-.32-.18.1-.36-1.23-.4-1.18.08.18.03-.7.09-.76-.13-.11.14-.73.12-.73.04-.1.02-.3.19-.46,0,.07-.53-1.19-.31-1.13.16.03.1-.68.18-.52.03.17-.14-.82-.1-1.02h0Zm-172.64.06c-.03.07-.84.35-.93.27.05-.16-1.1.21-1-.04.07.16-.72-.11-.7-.11.09-.27-.32,5.04-.18,5-.04-.37.45,4.97.45,4.88,0-.2-.37,4.87-.32,4.94-.05-.29-.27,4.66-.38,4.72.1,0,.25,4.92.29,5.02.06-.12.1,4.52.05,4.46-.21-.13-.21,5.33-.21,5.19.05.03.19,4.87.12,4.77-.05-.12-.02,1.25,0,2.59.37,0,.72,0,.78.06,0,0,1.41-.43,1.49-.2.06.08,1.88.34,1.84.39-.14.22,1.5-.15,1.77-.13.12.06,1.52.46,1.62.15.09-.1,1.71-.27,1.83-.44-.1.18,1.41.63,1.4.47.14-.06,1.84-.06,1.83-.01.41-.07,1.71-.17,1.79-.09.12-.08.67-.02,1.11.02.06-.28.13-.54.23-.78-.02-.43.21-1.15.38-1.65.07-.28.85-.71,1.08-1.15.3-.64.17-.98.46-1.24.11-.38.45-.46.78-.8.02-.45.6-1.04.96-1.23.48-.47.64-.51.87-.82.56-.15,1.32-.74,1.48-.73.47-.25.47-.68.98-.66.52-.1.87-.23,1.33-.29.67-.38,1.08.03,1.56.16.57.09,1.03-.42,1.61-.24.13.08-.16-.22-.13-.19.65,0,1.02.28,1.67.21.31-.06,1.17.2,1.4.38.53.15,1.07.11,1.43.11.22.24.96.37,1.2.76.49.16,1.1.37,1.35.49.39.48.51.15.91.72.29.47.87.25,1.09.73.18.41.39.81.89,1.35.41.2.43,1.03.6,1.12.21.56.39,1.03.39,1.45.09.41.62.56.68,1.15.07.39.31.62.46.88.13-.01.33-.04.38-.05.19-.04,1.93.35,1.74.17,0,.26,1.79,0,1.65-.06,0,.23,1.69-.01,1.61.13.17-.11,1.63-.24,1.68-.1-.06-.01,1.53.23,1.67.22.05.04,1.66-.5,1.69-.44-.02.03,1.9.28,1.87.34.08-.21,1.76-.18,1.51-.18.16-.07,1.62.03,1.66-.08,0,.01.2,0,.28.01-.2-.62-.48-1.17-.62-1.69-.03-1.09-.13-1.72-.33-2.66-.5-.74-.8-2.04-1.15-2.8-.35-.69-.62-1.46-1.02-2.28-.42-.64-.71-1.86-1.18-2.35-.17-.71-.38-1.24-1.17-1.9-.53-.89-.86-1.33-1.54-1.84-.58-.72-1.6-1.12-2.12-1.79-.58-.53-.98-1.29-1.82-1.54-.63-.48-1.37-.39-2.06-.87-.86-.26-1.27-.64-2.11-1.07-.71-.5-1.79-.47-2.48-.59-1.01-.29-1.67-.53-2.68-.61-1.11-.03-1.79-.04-2.66.07-.53.15-1.18-.16-1.49-.08-.35-.08-.55-.15-.86-.12-.56-.18-1.2.45-1.6.35-.44.07-.7.24-1.15.27-.45-.09-.7.07-1.12.12-.36.14-.93.4-1.34.47-.25.3-.81.3-1.08.31-.4.25-.55.31-1,.72-.34.17-.66.31-.98.63-.43.52-.98.15-1.08.53-.19.22-.95.38-.97.93-.62.28-.46.49-.99.91-.35.36-.26.52-.53.74,0,.39-.55.24-1.01.74-.28.28-.81.74-.97,1.03-.14.3-.44.75-.82,1.1.04-.07,0-1.8-.04-1.84-.13.02-.05-1.67-.09-1.86-.07-.02.17-1.68.12-1.69-.21-.02.1-1.51,0-1.67.03-.14.12-1.91.13-1.72-.15.12-.24-1.78-.36-1.83.1.07.36-1.73.3-1.81.04-.16-.19-1.95-.11-1.76-.13-.15-.17-1.39-.06-1.38.07.07-.02-1.92-.05-2.01-.09-.28-.01-1.65-.1-1.66.23.08.25-1.76.16-1.83.19-.19.12-1.81.16-1.99-.03-.34-.15-1.7-.15-1.61.06.18-.08-1.83-.09-1.8-.25-.03-.39-1.77-.23-1.88-.02,0-.13.05-.35.06-.17.08-1.16.15-1.22.1.03.08-.96.15-.87-.04-.03,0-.79,0-.81.15.11.05-.91-.31-1.06-.19-.27.03-.93.29-1.04.17-.11.1-.85-.13-.69-.16-.11.16-1.15.21-.96.24.12-.09-.59-.08-.74-.1,0,.11-1.18,0-.96.03.12.15-1.08-.03-1.14-.14.03.2-.99-.11-1.27.03-.2.06-.62-.21-.64-.18h0Zm-62.75,19.23c-.25.11-.61.2-.93.44-.16.2-.82-.04-1.3.01-.44.29-.5.09-.99.03-.13-.04-1.04.14-1.3.04-.61-.08-.56-.22-1.08-.02-.42,0-.57.15-1.19.42-.46.12-.78.21-1.18.28-.09.22-.61.2-.91.4-.38.13-.61.39-.96.58-.44.17-.25.39-1.08.31-.33.02-.37.36-.93.64-.47.25-.55.64-1.03,1.02-.3.22-.73.34-1.22.59-.43.43-.8.79-.92,1.12.06.29-.78.93-.96,1.42-.32.56-.69,1.04-.87,1.44-.08-.03.21-.28.16-.5-.08.37-.36-.09-.27-.19.14-.07-.07-.55-.03-.49.1-.12.57-.41.28-.46.02-.17-.05-.28-.23-.47.07-.09.31-.65.21-.53-.08.15-.13-.56-.12-.58-.16-.03-.07-.27.04-.39-.22.12-.05-.34-.15-.32-.12-.06.16-.61.14-.54.07-.08-.14-.6-.22-.26.07-.1.3-.49.19-.65.26-.18,0-.24-.04-.31.05-.08.04-.26-.04-.34.07-.04.16-.24.2-.14-.04.21-.06-.79-.03-.75-.15.29-1.17.09-1.14.02,0-.1-1.11.25-.97.01,0-.09-.7.23-.57.09.19-.12-.82-.24-.85-.16-.05.1-1.14-.28-1.07-.04.13-.1-1,.11-.92-.16.02,0-.8.24-.87.31-.17-.16-.7-.25-.79-.15.19-.24-.92.33-1.03.18-.08.15-.72.11-.68.15.21.11-.72-.22-.86-.23.06.11-1.11-.1-1.34-.04.04.16-.31-.22-.32-.11.07.16-1.11.64-.94.41-.04.11-1.21-.15-1.18-.16.02-.08-.46-.15-.46-.19-.03-.15-.27,3.6-.23,3.72.08.14-.27,3.49-.35,3.57-.1-.04.73,3.55.57,3.62-.16-.03-.36,3.28-.46,3.43.08-.35.33,3.62.19,3.65-.12-.05.01,1.69.04,2.78.48-.07,1.05-.16,1.01-.07.13.31,1.71.09,1.63.24-.12.05,1.84-.1,1.52.05-.25-.05,1.6.13,1.83-.11.06.21,1.22-.38,1.2-.15.04-.04,2.07-.02,2.08-.14.21-.12,1.61.05,1.52.35.02.12,1.47-.1,1.62-.09.04-.02,2.19-.13,2.02-.1-.08-.19,1.39,0,1.31,0-.06-.07.21-.06.54-.03.04-.2.07-.41.18-.68.23-.62.69-.75.56-.95.2-.35.42-.62.52-.91.38-.4.58-.53.88-.91.47-.19.53-.14.98-.81.36-.45.78-.52,1.04-.69.38-.25.76-.78,1.17-.97.37-.24.6-.02.96-.33.42.05,1.1-.25,1.61-.25.58-.21,1.26-.14,1.62-.39.83-.17.84.16,1.38-.06.39.08,1.18-.13,1.51,0,.16,0,.45.37.43.33.18-.05-.11-1.04.19-.8.03.02.05.46.27.52.01.07.37-.39.55-.28.2-.04-.29-.06-.05-.14.08-.13.43.44.3.49.03-.11.29.13.4-.01.16.33-.04.27.25.04.09.07.23-.35.39-.32.21.11-.13.03.02.25.09.18.07.04.3.03.18,0,.08.19.45.23.11.26-.08.25.14,0,.02.02.02.15.18-.07.2-.11.42-.17.52-.09-.01.21-.08.18.21.17.04.03-.04-.92-.17-.94-.03-.22.07-1.25.19-1.22.07.05.25-.86.02-.82.24-.09-.3-.77-.16-1.01,0-.07.12-1.06.42-.97.01-.08-.34-.81-.3-.88.16.22-.23-.66-.25-.78-.19-.02-.04-1.38.11-1.32-.13.04-.03-1.08-.04-.88-.16.06-.06-1.22.08-1.14-.04-.21-.35-.7-.32-.74-.13.09.43-.92.37-.99-.04.42-.03-1.11-.02-.95.02-.11-.11-.84-.11-.92-.04.08-.03-1.24-.1-1.08,0-.02.25-.74.21-.85-.07-.19-.31-.13-.3-.11.03.1-.25.04-.39-.12-.14-.04-.06.07.05.18-.07-.03-.13-.04-.13.02-.08-.04-.07.03-.06.07-.02.01-.04.03-.05.04,0-.01,0-.02,0-.03-.2.14-.16-.32-.22-.37-.07.18.06.14-.08.11.02.06,0,.09,0,.14.01,0-.27-.22-.32-.22.06-.06-.09.12-.19.29-.13.04-.31-.11-.28-.12,0-.06,0-.08.01-.1-.16-.04-.32-.08-.27-.12h0Zm-61.99.05c-1.33.11-2.27.3-3.38.29-.94,0-2.33.51-3.1.66-.98.25-2.04.15-2.74.19-.92.12-1.47.37-2.42.69-.72-.03-1.5.57-2.28.74-.68.58-1.25.54-1.9.91-.48.36-1.39.61-1.79,1.1-.56.33-1.29.78-1.66,1.32-.51.44-1.09.86-1.57,1.31-.5.49-.79,1.14-1.11,1.69-.38.49-.54.76-.89,1.41-.58.62-.8,1.36-.83,2.08-.26.39-.28,1-.42,1.78-.13.57-.44,1.39-.43,2.03-.06.82-.32,1.26-.36,1.8-.03.53-.24,2.04-.21,2.51.17.05.93.02.91-.17-.04.07.93.17.99.11.16,0,.43-.44.71-.13-.07.03.82-.14.76-.29.11-.13.96.16.91.09-.18-.09.5.36.79.32.16.18,1.1-.06,1.09-.04.05.05.58-.08.63-.27-.22-.03,1.07.04,1.06-.05.11-.11.64.28.71.26.11.04.98-.13,1.11.19.06.1.57-.04.77.12.14-.02,1.05-.23,1.14-.32.08.02.61-.14.54.11.24.03,1.01-.32.88-.17,0,.03.98.09.99-.05-.05-.11-.31-.55-.03-.89-.11-.48.16-.54.34-.76.08-.29.49-.53.45-1.06.04-.18.16-.57.24-.64.27-.25-.13-.47.33-.83-.11-.17.29-.6.44-.75.36-.15.61-.31.63-.45.27-.44.26-.25.57-.52.4-.24.47-.38.64-.69.15-.03.2-.25.56-.42.22-.13.77-.54,1.02-.64.24.03.06-.11.53-.22.48-.22.79.14,1.22.07.2.03.26-.4.85-.47.3,0,.57.14,1.12.17.59-.02.94-.08,1.51-.18.31,0,.57-.19.95,0,.29-.15.57-.37,1.04.03.1-.05.63.07.86.17.37.05.63.23,1.08.21.22.15.71.04,1.1.11-.07.1.21.08.43.3.26-.2.53.27.84.26.2.05.6.47.69.47.23.13.54-.04.86.45.09.16-.11.11.16.41.34.28.5.22.63.44.39.33-.03.49.01.4.17.09.54.74.63.89.13.16-.47.12-.2.34.04.38.01.37.38.47,0,.1-.21.85-.17,1.01.32.11.3.29.3.53-.04.27-.28.31-.24.61-.07.21.11.58-.02.72.03-.01-.32.46-.22.56,0,.29-.27.28-.46.56-.31.14.18.06-.11.2-.13-.08-.32.49-.37.77-.28-.08-.37.39-.44.43-.01.13-.05.04-.21.18.53-.05,1.4-.13,1.49,0-.07-.04,1.57.15,1.61-.04.1-.1,1.77-.08,1.95-.04.06.09,1.53.19,1.56.24.13.18,1.29-.35,1.56-.11-.22-.14,1.69.14,1.76.01.02.21,1.67-.21,1.72.02.02.09,1.25-.13,1.45-.15.12-.09,1.93-.13,1.95-.07.26-.17,1.38.07,1.48.28-.01-.03.45-.14.92-.22-.11-.74-.25-1.72-.09-2.39-.09-.88.03-1.4-.04-2.46-.11-.67-.39-1.04-.51-1.95-.35-.81-.22-1.73-.6-2.42-.17-.78-.43-1.35-.83-1.91-.43-.65-.78-1.26-1-1.84-.18-.44-.46-1.08-.92-1.81-.25-.59-.93-1.19-1.48-1.54-.43-.73-1.08-.76-1.55-1.36-.26-.54-1.09-.83-1.68-.93-.75-.39-1.18-.72-1.98-1.3-.79-.26-1.23-.59-2.08-.86-.66-.35-1.83-.38-2.57-.47-.65-.24-1.94-.23-2.92-.46-1.05-.03-1.79-.52-2.67-.5-1.2-.22-2.23.06-3.35.07.07.06-.03-.2-.02-.25h0Zm323.56.06c-.06.08-.14.14-.18.16-.83.11-1.88-.11-2.84-.09-1.05.18-2.27.08-2.97.39-.9-.01-1.69.37-2.41.6-.96.16-1.88.42-2.56.87-.97.18-1.67.88-2.4.94-.73.36-1.65,1-2.17,1.39-.97.27-1.34,1.03-2.1,1.48-.48.24-1.16.67-1.89,1.59-.58.48-.78,1.49-1.46,1.9-.52.81-.78,1.42-1.34,2.15-.32.56-1.24,1.51-1.67,2.36-.31,1-.58,1.64-.7,2.59-.17,1.11-.53,1.69-.83,2.81.01.79-.73,2.19-.85,3.29,0,.02,0,.04-.01.06.25-.04.45-.08.4-.1.15-.27,1.85.12,1.79.03-.19-.25,1.59.13,1.65-.01.26-.14,1.81-.24,1.68-.1.08.03,1.42.02,1.47-.07-.21.05,1.44.05,1.69.03,0-.01,1.8.39,1.77.23.01-.01,1.58-.1,1.48-.2-.12,0,2.06.17,2.03.1,0,.02.69.13,1.17.21.05-.47-.03-.8.28-1.23.09-.46.25-1.12.56-1.47.17-.61.47-1.25.54-1.6.15-.3.79-.41.77-.8.53-.25.62-.71.71-.99.25-.23.23-.45.86-.91.09-.29.58-.43.78-.73.07-.12.61-.71,1.07-.97.68-.15.82-.2,1.19-.4.4-.19,1.03.03.94-.25.48.03.54-.27,1.11-.43.37-.26.99.12,1.22.06.5-.21.87-.13,1.1-.16.46-.15.92.1,1.24.1.62-.04.43-.43.61-.25.55.19.81-.04,1.1.33.38-.06.68-.04,1.05.16.43.07.34.79.72.74.38.05.98.3,1.14.31.12.11.47.66.68.77.22.08.62-.08.75.14.1.33.45.78.82.7.25.15.24.5.32.74.2.45.45.41.54.66.26.21.08.46.46.75.14.13.3.84.48,1.15.18.33.34.83.46,1.14,0,.48.15.58.13.89.04.34.09,1.02.23,1.2.04-.07.79.02.96.01.04.08.76-.11.84-.09-.1-.12,1.13-.05,1.11,0,.16-.02.73.1.99.02.07-.07.76.13.78-.02-.04-.19,1.25-.47,1.21-.32.05-.01.43.31.7.44.17,0,.44,0,.43,0,0,0,.33,0,.6,0,.18-.01.33-.03.3-.07.05-.08.85.13.9-.07.13.1.23-.15.31-.16.16-.16,1.69.19,1.56.12-.17-.12.72-.3.76-.1-.1,0,.78.06.77.12-.12.19,1.37.14,1.36.04-.18,0,.79.1.81.1-.12-.18.62-.28.71-.14-.01-.86-.03-1.68-.22-2.47-.05-.96.08-1.48-.34-2.27-.28-.88-.47-1.56-.96-2.52-.2-.69-.7-1.34-.69-1.98-.47-.63-.82-1.34-1.11-2-.37-.61-.92-1.37-1.25-1.89-.44-.8-.88-.54-1.35-1.09-.37-.58-1.38-1.19-1.65-1.75-.7-.38-1.08-1-1.51-1.41-.69-.45-1.95-.65-2.4-1.14-.59-.51-1.15-.77-1.89-1.06-.78-.38-1.33-.45-2.01-.85-.89.03-1.5-.33-2.39-.5-.91-.18-1.92-.65-2.6-.75-.75-.12-1.83-.19-2.74-.28-.73.14-1.59-.04-2.62-.19h0Zm-259.82.37s.02.02.02.02c0,0-.01,0-.02-.01,0,0,0,0,0,0h0Zm-99.79,1.03c-.32.01-1.02.17-1.06.28-.11.16-1.26-.31-1.3-.21.1.04-1.48.04-1.18.03-.15.09-1.51.06-1.31-.03,0-.03-1.05.37-.97.22-.13-.31-.99.04-.97-.09.05-.09-1.22,1.38-1.25,1.35.02.1-1.17,1.53-1.13,1.54.44,0-1.46,1.2-1.39,1.17.01-.11-1.07,1.5-.9,1.59.08.06-.79,1.47-1.24,1.39-.03.02-1.47,1.14-1.31,1.25.02.03-1.21,1.39-1.15,1.49-.06.03-1.11,1.4-1.06,1.23-.01.16-1.06,1.38-1.18,1.31.03,0-1.15,1.29-1.14,1.28-.23.31-1.34,1.73-1.18,1.45-.37-.04-1.61,1.2-1.57,1.2-.03-.02-.58,1.74-.69,1.63-.14-.07-1.42,1.73-1.37,1.41.2.03-.98,1.39-1.04,1.46.03-.03-.19.15-.3.25.02,0,.08.02.07.03-.21.04,1.76-.27,1.83-.08-.1.05,1.72-.15,1.87.03-.03-.21,1.42-.14,1.55.01.09-.04,1.74-.38,1.56-.25.17.09,1.28-.12,1.58-.18.26-.02,2.06.05,1.85.17.04-.13,1.7.39,1.62.23.03.05,1.68-.35,1.61-.31.06-.02,1.41.04,1.44.21,0-.21,2.05-.15,2.09.07.03,0,.21.01.3.02.35-.43.9-1.17.96-1.21.1.17.97-1.13.98-1.22.05-.09,1.34-1.06,1.25-1.23.02-.04.92-1.54,1.26-1.63-.15-.01,1.34-1.03,1.45-.92.06-.21,1.1-1.15,1.04-1.23-.19-.16,1.08-1.79,1.28-1.64.04-.09.93-1.16.92-1.16-.19-.05,1.52-1.12,1.49-1.26-.03-.33,1.03-1.48,1.12-1.4.21.09.99-.93,1.06-1.15.18.08,1.31-1.63,1.37-1.47-.07.13,1.12-1.6,1.21-1.52.12-.04,1.03-1.25,1.27-1.11-.19-.04,1.13-1.43,1.1-1.48-.02-.08,1.2-.96,1.11-1.17-.06.12-1.26-.09-1.26-.07.07.06-1.3-.06-1.08.07-.09-.24-.96-.19-1.07-.2.08.16-1.19.4-1.05.15-.09,0-1.03,0-1.08.12-.21-.07-1.58-.16-1.57-.29.09-.12-.88.44-.85.27-.06.04-1.26.04-1.29-.31-.09-.04-1.11.32-1.14.44-.06.02-1.01-.6-1.01-.46.02-.04-.05-.05-.16-.04h0Zm42.07,21.08c-.2-.02-.38.01-.52.14.31.02.64,0,.79-.09-.09-.02-.18-.05-.27-.05h0Zm304.93,3.62c.09.09-1.73-.05-1.81.12.07-.08-1.65.36-1.37.23.21,0-1.82.05-1.71.08.23-.14-1.75-.24-1.65-.08-.11.05-1.88-.05-1.75.25-.14.19-1.51-.46-1.34-.26.03-.11-2.3-.29-2.04-.06-.04.08-1.99-.06-1.85,0,.02.02-.34.06-.7.09-.06.98.29,2.4.05,3.28-.3,1.46.02,2.57-.01,3.64.31,1.04.45,2.13.65,3.38.15,1.18.39,1.86.46,3.1.41,1.03.55,2.04.74,3.11.29,1.09.91,1.89,1.41,2.83.38.91.14,1.99.55,2.69.31.81,1.46,1.27,1.95,2.08.56.54.89,1.63,1.48,2.17.55.64,1.35.78,2.04,1.59.48.54.88,1.37,1.65,1.62.86.48,1.44.98,2.17,1.32.84.46,1.77,1.04,2.42,1.33.91.34,1.87.62,2.67.8.62.11,1.57.2,2.39.35.97.34,1.76.51,2.8.73.65.5,1.93-.28,2.79,0,1.12.01,1.65-.18,2.47-.18.94-.13,1.77-.27,2.6-.44.96-.15,1.82-.3,2.62-.48.85-.19,1.43-.41,2.1-.67.68-.23,1.2-.15,2-.78.53-.6,1.41-.66,2.3-1.05.75-.25,1.47-.99,2.04-1.4.65-.43,1.15-.28,1.82-.97.57-.52,1.34-1.5,1.59-1.96.52-.42.81-.84,1.37-1.51.55-.33.5-1.17,1.36-1.96.41-.68.86-1.14,1.24-1.98.47-.58.8-1.14,1.3-2.06.28-.87-.02-1.57.57-2.32.18-.76,0-1.5.28-2.25.22-.72.57-1.44.59-2.37-.18.05-.77.15-.84.21.05.35-1.24-.33-1.03-.23-.1-.08-.98.6-.87.31.26-.11-1.14-.16-.98-.23,0,.03-.96-.03-.94.04.02.12-1.17.3-1.13-.08.08-.06-.79.05-.66.02,0,.11-1.12.21-1.08.02.14,0-1.01-.16-.93-.08.23.19-.96-.45-.83-.21.06-.11-.95.3-.97.31-.13-.25-1.06-.28-.91-.3.02-.08-1.34.2-1.35.17-.03-.06-.66.33-.76.17-.05-.1-.83-.01-.89-.02-.16-.15-.82.07-.87-.01-.2.48-.13.62-.24,1-.02.44-.27.79-.22.96.08.4-.4,1.12-.44,1.37-.1.27.04.44-.18.68-.15.11-.77.75-.65.91-.05.28-.39.44-.57.65-.35.49-.31.96-.78,1.09.01.28-.34,0-.58.27-.27.14-.6.76-.85.81-.42.08-.31.14-.46.34-.46.2-.67.13-1.29.31-.52-.16-.54.48-.87.63-.39-.05-.16.24-.81.18-.13.24-.64-.06-.9.07-.49-.06-1.12.45-1.5.3-.28-.13-.49-.51-1.02-.22-.35.16-.41-.17-.89-.21-.54-.15-.96-.03-1.19-.22-.23-.3-.76.09-.85-.02-.21-.31-.38-.23-.93-.51-.34-.11-1.06-.81-1.34-.94-.19-.43-.49-.28-.78-.5-.37-.6-.76-.9-1.02-1.16-.54-.37-.27-.29-.73-.85-.36-.28-.58-.73-.69-1.05-.27-.14-.29-1.02-.58-1.71-.17-.4-.5-1.12-.58-1.4-.11-.51-.29-1.26-.49-1.62,0-.52-.1-.98-.23-1.69-.04-.62-.4-1.4-.56-2.06.04-.79.14-1.27.08-2.06-.11-.9-.16-1.34-.34-2.24-.2-.5.01-1.53.08-2.22.02-.29.03-.53.04-.78-.47-.12-.93-.23-.87-.22h0Zm-106.54,0h0c-.43,0-.87.06-.88.11.03.04-2.02.26-1.84.22.03.1-1.44.15-1.42.14.07-.17-1.86.01-1.96-.1-.12-.22-1.85.11-1.78-.02-.14.04-.7.03-1.06,0-.29.1-.6.2-.8.28-.58.07-1.69.12-2.21.47-.67.42-1.41.55-1.92.79-.7.2-1.33.87-1.77,1.2-.65.35-.92.73-1.54,1.1-.36.36-1.45.55-1.91,1.08-.2.4-.69,1.32-1.06,1.79-.47.43-.73.75-1.04,1.64-.48.63-.54,1.26-.85,2.02-.43.79-.23,1.71-.29,2.39-.02.63-.72,1.47-.79,2.45.02.95.03,1.9.13,3.06.09.58-.16,1.16-.12,1.65.15.53-.04,1.45.16,1.78.19.48.14.91.42,1.45.04.17.29,1.21.6,1.62.1.3-.02.41.35,1.04.42.51.73.89,1.15,1.63,0,.65.26.78.74,1.2.56.29.61.46,1.24.94.34.28.54.99,1.21,1.35.52.48.98.28,1.28.61.75.14,1.19.38,1.72.66.35.12.97.17,1.69.53.72.38,1.2.4,1.94.51.77.18,1.07.55,1.79.55.68.21,1.61.49,2.48.31.83-.23,1.4-.59,2.35-.3.49-.09,1.02.23,1.51.13.45.11.75.03,1.08-.09.42.05,1.24-.22,1.68-.06.62-.06.99-.06,1.31-.12.32.16.66-.33,1.27-.32.1.14.62-.25.99-.53.21-.03.97-.34,1.27-.42.55-.33.31-.13.86-.3.49.03.64-.15,1.1-.31.22-.28.94-.58,1.2-.75.23-.4.39-.03,1.08-.13.21-.36.21-.75.6-.94.23-.17.62-.71.84-.97.17-.27.66.35,1.02-.05.09-.09.48-.65.69-.78.16-.36.24-.79.65-.93.04-.01.16.18.18.34.05.18-.02.14-.14.2-.14-.06.09.81.07.84-.09.03-.39.22-.13.18.25.06.23.11.27.15-.03.12,0,.15.01.53-.02.13.21.23.13.2.12.08.1.29.08.27.03.04-.29.64-.18.76.05,0,.14-.35.16-.06.1-.08.37.3.31.4.22.14,0,.14-.11.23.06-.01.09.41.3.47-.02.02-.05.07-.02.19.01.16.21.23.18.17.37.17-.17.1-.08.29-.02-.08.75.42.89.25.02.25.97.04.81-.06-.16-.1,1.08-.11,1.05.01.18.1.78-.16.65-.16.07.13,1.06-.04,1.09,0,.14-.03,1.15-.11,1.05-.08-.03-.14.78.03.92-.03,0,.01.32.12.46.2.01-.22.94-.3.98-.15.15.09.72.33.84.21-.12.11,1.11-.18.93-.2-.01.22.77-.1.79,0-.15.13,1.01.28,1.26.34.17.08.64-.36.62-.39-.03-.34.54-.07.68,0,0-.24,1.27.33,1.1.19-.16.13.04-2.27-.1-2.24-.15-.05-.04-2.29-.01-2.22,0,.11.28-2.45.24-2.4-.05-.01-.16-2.48-.08-2.51-.2-.14,0-2.24-.15-2.17-.17.05-.35-1.84-.04-1.96.06-.04.24-2.41.11-2.33-.2.03-.18-2.51-.17-2.57-.13.04-.01-1.94-.03-1.94.11,0,.16-2.03.08-2.21.05-.04.2-2.51.05-2.39.19.03-.08-2.1.05-2.2-.04-.08-.1-2.34-.09-2.25-.2-.23.11-2.05-.05-2.14,0,.01.03-.45.05-.82-.31-.06-.67-.14-.6-.15-.07-.09-1.54-.05-1.63-.14-.08.03-1.84.14-1.7.03-.03.02-1.78.14-1.84.04,0,.05-1.79.13-1.67.26-.13.15-1.93-.17-1.7-.22-.04-.22-1.84.02-1.51-.04-.1-.24-1.73-.28-1.92-.2-.16-.1-1.54.23-1.51.25.07.03-1.53.11-1.3.07.53.15-1.99-.17-1.95-.02-.08-.02-1.59-.13-1.74-.18-.21.15-1.49.18-1.54.27.03-.1-1.88-.42-2-.36-.01-.12-1.12.28-1.16.31-.12-.04-1.94.2-2,.03,0,0-1.44-.1-1.58-.26.06-.12-.35-.16-.78-.15h0Zm-204.58,0h0c-.45,0-1.45.22-1.41.27.1.07-1.73.3-1.66.02.01.17-1.83.07-1.84.1-.12.06-1.69-.06-1.8-.09-.08.01-1.67.14-1.65.06-.16-.15-1.53,0-1.53-.09-.17-.08-.86-.14-1.38-.14-.73.1-1.54.28-2.18.36-.76.03-1.62.59-2.32.68-.91.37-1.13.31-1.74.67-.58.25-1.2.51-1.87,1.02-.72.28-1.12,1.1-1.7,1.47-.54.4-1.16.22-1.43.76-.52.41-.56,1.37-1.24,1.81-.33.78-.71,1.39-1.02,1.87-.48.81-.68.77-1.01,1.55-.32.98-.33,1.68-.51,2.65-.21.59-.5,1.94-.4,2.75-.06.77,0,1.8-.24,2.91-.12.56.13,1.31.17,1.81.03.53,0,1.05.09,1.6-.19.82.2.98.39,1.6.14.48.45,1.14.58,1.43.39.52.44.72.66,1.25.22.62.81.88,1.05,1.25.42.62.27,1.09.46,1.41.35.45,1.04.4,1.25.88.48.37.57.69,1.25.97.66.13,1.13.88,1.52.87.54.31.84.49,1.56.75.49.16.99.59,1.67.65.46.22,1.13.67,1.9.76.78.11,1.51.1,1.97.12.5-.05.85-.03,1.25,0,2.01.3,3.45.25,6.46.15.41.07.85.04,1.07-.21.53.18.94-.19,1.34-.19.44-.22.83-.11,1.17-.13.33-.13.88-.64,1.05-.57.28-.08.92.04,1.3-.12.46-.21,1.01-.91,1.17-.77.23.04.59.05,1.06-.05.46.05.44-.1.86-.67.1-.12.98-.2,1.32-.32.29-.31.27-.78.58-.87.14-.27.28-.42.74-.6.04-.22.81-.38,1.17-.55.34-.06.74-.78.78-1,.31-.49.05.01.29-.44.05.11.36.25.23.23.35-.27.25.28.29.39-.06-.05-.29.21-.34.28-.26,0-.15.32.04.43.08-.02.19-.11.14.12.02-.03.02.51.17.62.15.08.14.2.11.29-.02.06-.05.12-.04.28.1.13.16.11.2.06.08.16.16.47.12.46-.11.11-.21.43-.21.42.05.07.56.38.49.36.19.13-.26.3-.23.34.36.22.09.49.16.45-.02.02-.04.07-.06.16.15,0,.28.11.32.18.11.01.44.15.46.22-.08-.08,1.27-.12,1.26-.11-.08.07.81-.07.87-.21-.02-.06.8.2.76.24,0-.04.94-.19.95-.05.04.2.84-.08.77-.11-.26-.11.79-.27.85-.08.06.2.91.25,1,.15.12.27.6-.14.66-.07.14.17,1.03.31,1.18.23-.09.19.74-.12.9-.17.1-.19.83.28.77,0-.06.08,1.05.14.91.01-.04,0,.71-.28.69-.09.17-.11.99.16,1.11.11.09-.02.6.04.8.08.24-.17-.18-2.37.07-2.54.04-.23,0-2.24.07-2.04-.03.01-.12-2.28-.02-2.17-.23-.01.1-2.4,0-2.47-.13.01-.17-2.27-.26-2.22-.03-.18.4-2.06.29-2.13.04-.21-.17-2.54-.24-2.56.11-.12-.24-2.03-.08-1.9.19-.08.05-2.82.15-2.58.06.12.32-2.19.24-2.13.06-.13-.14-2.02-.22-2.18-.03-.13.16-2.45-.03-2.48-.01.11-.33-2.43-.09-2.22.03.06.33-1.92.13-2.19-.04-.06-.01-.44.03-.85-.46-.03-.99-.06-1.06,0,.13-.1-1.06.33-1.2.35-.13.23-1.79-.24-2.1-.36.12-.02-1.81.11-1.7.2-.02-.13-1.78.11-1.73-.03-.34.09-1.89-.03-1.82-.15-.09.11-1.18-.01-1.3-.02-.11.08-1.88-.09-1.87.09-.15-.15-1.83.24-1.68.06-.11-.03-1.65-.08-1.6-.1.07-.1-1.89.11-1.8-.02-.01-.11-1.68,0-1.71-.1,0,.18-1.4.14-1.48.2-.06.08-1.86.15-1.81-.03.15.01-1.64-.38-1.56-.24.03-.05-.05-.07-.2-.07h0Zm131.35,0c-.15,0-.23.03-.2.11.1-.09-1.54.37-1.51.27.24-.12-1.77.04-1.82-.08,0,.1-1.6.27-1.65.3-.04.25-1.67-.28-1.63-.15.12-.23-1.8-.27-1.71-.15.1-.04-.31-.1-.76-.15.07,1.47.18,3.42.1,3.36.08-.02-.35,4.67,0,4.71.1.1-.09,5.41-.12,5.27-.25.16.29,4.5.17,4.61.01.2-.14,5.5-.15,5.2-.08.05,0,4.56.08,4.46-.03-.1,0,4.93,0,4.92.19.04.75.33.79.11-.18.16,1.02-.18.9-.1-.16-.24,1.08-.16.96.03.1.13.98.14,1,.04-.06-.06,1.02-.15,1.05-.15-.06-.02.8-.19.68.13.11.03.75.14.85.05-.08-.09.89.15.96-.01-.18.17,1.2.02,1.17.11.15.15.67-.25.78-.19-.17,0,.97-.21.91-.18-.09-.1.94-.07.97.2-.03-.13.71.14.88.37.09.06.89-.27.78-.44-.22-.2,1.04.23.97.25-.17.07,1-.22,1.15-.4-.36-.3-.54-.16-.34-.21-.08-.08,0-.2.16-.29-.1-.07-.15-.13-.15-.39.09.05.23-.85.28-.8.13.02-.04-.13-.17-.09-.05.1-.15-.19-.08-.28-.1-.04.17-.69.08-.67.28-.09.1-.73.06-.44-.04-.03.2-.26.32-.35-.04-.15-.38-.46-.27-.56.17.02-.1-.39.04-.33.02.13-.3-.7-.15-.66.06-.13.16-.1.17-.25.05.09.27-.62.04-.62,0,.11-.37-.4-.33-.48,0,0-.04-.33-.08-.48.33.24.81.8.88.91.33.3.27,1.01.85,1.36.3.23.8.39,1.03.96.29.43.12.54.59.81.41.11.4.67.67.79.35.1.65.18,1.08.44.26.18.72.6.92.68.28.14.82.11.99.45.16-.08.49.55.88.69.43.19.79.51,1.11.47.15.19.48.14.99.41.17.22.92-.02,1.24.11.4.01.61.23,1.06.2.26-.12.79.46,1.23.27.3-.1.96-.12,1.44.04.57-.07.73.16,1.18.21.96-.19,1.62-.56,2.47-.45.76.04,1.89-.35,2.72-.4.62-.15,1.56-.17,2.49-.52.94-.25,1.69-.38,2.24-.68.8-.33,1.57-.82,2.23-1.41.73-.19,1.48-.88,1.96-1.33.68-.56,1.12-1.23,1.81-1.58.49-.67,1.26-1.18,1.98-1.99.22-.73,1.07-1.31,1.49-2,.57-.79.95-1.64,1.36-2.31.37-.69.99-1.69,1.24-2.35.13-.9.5-1.88.84-2.74.31-.89.45-1.9.71-2.91.1-.94.73-2.08.86-3.32.03-.89.6-2.23.45-3.31.15-1.08-.19-2.37-.14-3.4.01-.97.17-2.34.11-3.36-.43.02-.87.02-.77-.01-.16.08-1.91.18-1.82.11.28-.03-1.7-.09-1.8-.08.23.3-1.45-.08-1.24-.22.04.06-1.81.09-2.08.21.03.17-1.59.15-1.64.16.02.04-1.79-.05-1.59-.14-.11.1-2.03-.09-1.66-.08.04.03-1.65-.18-1.78-.03-.1.15-.86.33-1.25.28,0,.02,0,.04,0,.06.17.7.14,1.28.25,1.84.13.82-.31,1.57-.15,2.18.2.56-.2,1.42.11,2.02.13.55-.09.88-.08,1.71.03.4-.48,1.1-.43,1.69-.34.55-.53,1.37-.62,1.81-.22.62-.14.54-.31,1.14-.34.98-.37,1.01-.58,1.55-.2.35-.91.49-.96,1.29-.34.59-.13.68-.47,1.19-.1.45-.96,1.09-1.07,1.22-.39.53-.89.57-1.1.82-.05.2-.42.71-.8.78-.4.22-1.1.77-1.35.85-.11.14-.27.29-.77.52-.13.14-1.06.18-1.58.34-.22.14-.75.25-1.42.11-.46-.18-1.15.4-1.43.29-.65.15-.85.11-1.27.06-.48-.15-.49-.08-1-.13-.24-.08-1.01-.69-1.36-.57-.42-.27-.94-.44-1.45-.57-.56-.22-.65-.36-1.22-.54-.36-.51-.76-.76-.91-.9-.45-.25-.7-.74-.94-.97-.18-.41-.53-.57-.93-.82-.41-.37-.46-.76-.68-1.22-.34-.61-.31-1.18-.78-1.54-.3-.21-.72-.45-.72-1.25-.19-.25-.24-1.04-.39-1.53-.06-.78-.51-1.11-.57-1.54-.12-.52.25-1-.11-1.45-.16-.6-.23-.89-.14-1.52.16-.64-.21-1.5-.04-2.04-.2-.69.12-1.45.07-2.01.13-.64.11-1.78.16-2.51.03-.17.04-.25.06-.37-.34.07-.63.11-.59-.06-.23.14-1.79-.22-1.67-.23-.02-.22-1.59-.1-1.79-.08-.03.06-1.05-.16-1.5-.15h0Zm-45.76.02h0c.14.1-1.24.6-1.42.24-.11.16-1.08-.05-1.26-.09.14-.01-2.28.21-2.18.08-.12.26-1.4.12-1.43.09.03-.03-.54-.11-1.05-.18-.24.07-.47.16-.63.3-.63.16-1.45.72-2.15.78-.43,0-1.45.69-1.9.9-.63.33-1.34.41-1.83.76-.48.23-1,.55-1.78,1.01-.59.48-1.16.99-1.4,1.52-.4.37-1.1.79-1.4,1.41-.58.47-.79,1.27-1.3,1.89-.14.51-.37,1.35-.62,1.88-.17.7-.27,1.63-.42,2.36-.04.74-.51,1.58-.63,2.56.14.96.08,1.77-.02,2.98-.05.56.09.89.02,1.42.19.42-.17,1.39-.16,1.99.02.27.33,1.29.72,1.54.33.71.25,1.18.51,1.84.05.53.46.81.74,1.09.13.48.24.93.58,1.46.06.32,1.17.76,1.26,1.22.49.23.4.28.88.67.28.38.7,1.22,1.2,1.22.28.26,1.18.61,1.7.85.64.28.95.81,1.51.98.56.32.65.17,1.38.3.36.19,1.6.22,2.03.3.5.11,1.01.63,1.87.49.77.41,1.73,0,2.51.24.88,0,1.23.04,2.25.12.46-.03,1.04.06,1.42.11.29-.13.89.06,1.33.03.54.17.86-.41,1.24-.5.21-.13.79.28,1.4.03.41-.22.55-.25,1.1-.53.45,0,.95-.02,1.22-.28.61-.26.93.01,1.21-.12.39-.25.58-.45,1.09-.64.45-.1,1.23-.59,1.42-.5.21,0,.48-.08.81-.28.13-.37.8-.67,1.08-.77.35-.17.64-.6,1-.69.32-.25.37-.12.63-.54.42-.2.27-.04.76-.32.52-.19.64-.76.82-.84.22-.21.81-.41.79-.59-.06.16.26.23.04.24,0,.15.51,0,.42.32-.09.24-.12.2-.3.25.03-.04.1.24.05.42-.03,0-.04,0-.09.01-.03.05-.16.49-.01.57.03-.08.11-.21.37.14.35-.13-.11.36-.05.37-.02.04.03.45.03.54-.1-.03.03.07.24.19-.03.12-.2.22-.21.36-.03.16-.18.39-.05.21-.05.17.03.29.13.2-.08.26-.06.41.03.46-.08.17.65.23.56.24-.2.18-.09.21-.06.3-.15-.12.45.33.5.23.11,0,1.03-.04,1.1-.03-.18.37.9.31,1.04.18.08.14.52-.15.53-.16.11-.16.96-.22,1.05-.17-.1-.26.64.01.77.05-.07.3,1.04,0,1.12-.01-.1.26,1.05-.45.97-.25.02-.17.43.47.71.3-.13.13.76-.25.73-.23.02.03,1.06.1.93.26-.16.09.88-.06.91-.19-.23,0,.87.02.85-.02.03.02,1.14.29,1.02.1.26.05.73.02.73.01.22.09,1.03-.11,1.1-.01.04.04-.35-1.89-.24-2.15.14.1.38-2.58-.02-2.45.15.05-.01-2.05-.1-2.18-.12-.26-.12-2.51.22-2.35-.07.07.17-2.38-.04-2.4.02-.24-.23-1.6-.12-1.72.01,0,.12-2.42.19-2.65.12.06-.28-2.11-.21-2.29.13.12-.13-2.14-.1-2.24.18.01.29-2.17.23-2.22.05.07.21-1.77.16-1.92.02.22.03-2.48.01-2.33.16-.23.05-2.4-.12-2.47.03.1-.13-2.25-.27-2.13-.02.1,0-.37.01-.77-.54.02-1.16,0-1.13-.14-.05.06-1.2-.05-1.27.08.11.14-1.67-.08-1.67-.08.05-.14-1.73-.38-1.82-.05-.19-.09-1.59.29-1.73.11.15.06-1.4-.27-1.55-.15-.2-.05-2-.12-2.02-.13.15.01-1.64.18-1.61.38.08,0-1.41-.3-1.66-.23.25.05-1.56-.13-1.68-.01-.18.2-1.12.3-1.18.14-.13-.08-1.88.14-1.83.06.02-.07-2.18.15-1.98,0-.35.02-1.8-.33-1.83-.26,0,.11-1.36.15-1.34.25-.19-.07-1.56-.1-1.7-.12-.1-.34-1.95.07-1.72.02-.07-.14-1.8-.21-1.95-.31h0Zm-50.44.1c-.43.04-1.27.2-1.21.16.03.04-1.68-.01-1.84.06-.06-.03-.54-.07-1-.1,0,0,0,.1,0,.1-.17-.11-.24,4.25-.2,4.09-.08-.15.19,3.37.18,3.38.18-.11-.12,3.76-.23,3.63-.05.13.41,3.48.35,3.52.02.12.03,3.58.01,3.4-.14-.11-.08,3.38-.03,3.58.32.1.08,3.7.07,3.7-.07-.11.14,3.65.02,3.73,0,.03,0,3.61,0,3.48.06.05.46-.19.82-.09.22-.02,1.02-.09,1.06-.05.05-.08.91.09.78.08-.15-.04,1.01.24.81-.09.04-.24.88.12.87.18.22.04,1.49-.21,1.25-.15-.09.07.68.29.74.2-.02.18,1.08-.41,1.02-.34-.08-.09,1.18,0,1.05.07-.04.17.72-.31.73-.25.06-.04,1.27.44,1.07.35.04-.11,1.16.06,1.05-.05.07-.13.64.3.84.13-.26-.08,1-.32,1.06-.23.2-.13.96.21.92.08-.16.11.95.11.98.02.11-.06.38-1.85.05-1.83.21.16.03-1.92-.17-1.95-.12-.03-.09-1.46.04-1.83.06.09.25-1.88,0-1.75,0-.13-.16-2.06.09-2.17-.06.24-.13-1.69.02-1.54-.13.12-.09-1.96-.21-2.05-.01.02-.04-1.79.03-1.73-.13-.1.05-1.98.05-1.91.08.14.26-1.81.14-1.85.02.07-.29-1.57-.15-1.68-.05.1.03-2-.09-2.21.13-.1-.09-1.96.05-1.77-.01.2.32-1.44.45-1.55-.13-.06-.17-1.98-.11-2.06-.19,0-.23-1.87-.35-1.73.09-.66.08-1.22.27-1.84-.11-.6.09-.7.07-1.12-.44-.02-.91-.03-.85,0-.14-.16-1.86.12-1.79.04.06.27-1.49-.04-1.71-.06.05.1-1.74.61-1.82.54-.36.16-1.31-.57-1.56-.37-.07-.05-1.88-.09-1.68-.18.01.03-1.64.17-1.67,0,0-.03-.1-.03-.25-.02h0Zm-92.48.01c-.27-.01-1.41.51-1.43.39.17.07-1.71-.15-1.66-.07-.14.07-1.37.09-1.5-.01-.07-.12-1.97-.47-2.02-.15-.39,0-1.36.15-1.4.07-.05-.05-1.94-.02-1.97-.22-.1.06-1.37.19-1.37.27-.04.07-1.69-.01-1.83-.21.04.1-1.9-.17-1.82.06-.05-.08-1.25.26-1.37.1-.11.01-1.74-.27-1.79-.03-.06,0-.78-.02-1.26,0,.08,1.39.13,3.08-.05,3.13-.04-.04-.29,4.97-.23,4.89-.12-.11.46,4.74.24,4.7.08-.18.02,4.87-.11,4.9.14.08.22,4.59.02,4.69.02.03.11,5.27.15,5.17-.11,0-.12,4.79-.22,4.8-.03-.02,1.14.03,1.08.16.04.33.96,0,.87,0,.17.12.95-.03.95,0,0-.04.95.26,1.07.02-.13-.07.92-.32.91-.21.08-.16.84-.04.81-.06.11-.06.92.48.95.31.1.05,1.03-.28.97-.21-.08.15,1.13.25,1.09.05,0,.13,1.04.09.94.15.02.01.97,0,.95,0-.16-.34.87.02.88.07.18-.06.95-.15.98-.37.05-.13.9.23,1.01.06-.08-.01.72.05.89.09-.24.06,1.09-.14,1.13-.06.05-.01.04-1.36,0-1.3.06-.01-.04-.7-.35-.71.12.16-.07-1.18.16-1.25.2-.03.08-1.47-.06-1.31.12.1.13-1,.04-.96-.08.02.13-1.03.21-1.1.21-.03-.19-1.03-.26-1-.01.09.24-1.13.04-1.38-.23.06.08-1.18-.12-1.06.21.03-.17-1.63.02-1.66-.14-.05.28-.77.18-.48.1,0-.08-1.82.17-1.62-.09-.06-.11-.98,0-.76.22-.27-.29-1.64-.14-1.49.08.11-.21-.88-.19-.82.02,0,.2-1.26.27-1.15-.06,0,.13-.57.11-.43.04.13.66-.59.6-.58.14-.1.28-.45.4-.35.05,0,.33-.58.34-.46.06-.28.65-.52.68-.55-.03-.22.29-.64.36-.52-.07.18.6-.37.55-.31.02-.07.3-.32.36-.44.08-.19.46-.67.28-.67,0,.05.84-.29.68-.23.11-.18.53-.8.51-.7-.03.11.47-.12.54-.32-.02-.02.47-.57.32-.65.02,0,.57-.5.62-.43.01.14.17-.55.18-.59-.15-.04.4-.66.66-.4.03.02,1.07,1.85.76,1.77.12-.21,1.01,1.06,1.16,1.15-.08.19.3,1.58.31,1.91.13.1.89,1.4.77,1.5.04-.27,1.1,1.82.96,1.81.15.16.74,1.4.68,1.49-.14.1.48,2,.67,1.78.08.05.85,1.87.79,1.77-.16-.09,1.1.97.99,1.05-.07.02.47,1.98.75,1.99.13-.22.93,1.31.84,1.48-.11.05.74,1.87.69,1.76-.15.14.99,1.51,1.03,1.54.08.02.3,1.49.58,1.44-.08.43.85,1.79.67,1.93.17-.13,1.01,1.06.79,1.18-.06-.2,1.25.48,1.37.31.22.03.66-.28.78-.29-.08-.16,1.25.07,1.19,0,.07.03,1.31.22,1.26.25.04.1.64-.25.73-.21.13.05,1.02.04,1.01.07-.18.2.89.39,1.07.21.1.14,1.15-.38,1.12-.24-.07-.1,1.25-.23,1.18-.18-.13.04.97.65.97.41.11-.06,1.29-.13,1.14-.14.26.03.97.09,1.14-.02.02.13.91-.04,1.06.04-.19.02,1.16.22,1.06,0-.15-.11,1.11-.35,1.05-.06,0,.06,1.08.26,1.06.04-.24.32-1.45-2.03-1.36-2.02.13,0-1.16-2.84-1.25-2.72-.1.12-1.21-1.99-.93-2.18-.08.17-1.4-2.02-1.2-2.09.07-.16-1.1-2.47-1.02-2.42.13.22-1.92-2.26-1.72-2.24.17-.22-.77-2.02-.69-2.09-.05.08-1.19-2.26-1.13-2.27.14.3-1.25-2.06-1.27-2.12-.16-.1-1.23-2.37-1.23-2.41.09.14-1.23-2.61-1.25-2.42.02-.03-1.04-1.89-1.01-2.03-.04-.26-1.46-2.47-1.25-2.48.19-.19-1.03-2.32-1.1-2.26.04.08-.15-.36-.3-.7-.22.06-.5.12-.53.15.15,0-1.74-.26-1.8-.32h0c.05-.08-1.51.14-1.5.06-.1-.03-1.49.07-1.66.18-.11.05-1.66-.25-1.72-.23-.11.17-1.76.16-1.98,0-.12.1-1.06.02-1.06.01-.13.21-2.2.31-2.16.23.13.05-1.32-.25-1.46-.19.02.17-2.08-.03-2.03-.03,0-.03-.02-.04-.06-.04h0Zm341.44.08c.06-.04-1.32.04-1.37.06.15.03-2.14.09-1.81.13-.06.14-1.71-.23-1.68-.18.24.16-2.01.16-1.94,0-.08.06-1.45.22-1.36.28.3.16-1.77-.29-1.78-.26.11.04-.34.07-.83.07,0,.2,0,.37-.03.44.2-.07-.26,2.9-.02,2.86-.03-.17-.11,2.56-.03,2.82.13-.2-.22,3.13-.2,3.13.1.06.06,2.81.22,2.79-.14.22.14,2.96.07,3-.16.04-.06,3.05-.05,2.94-.31.03.36,2.88.17,2.8-.04.03-.26,2.83-.34,2.95.03-.15.35,2.78.2,2.84-.04-.07,0,2.69-.15,2.87-.06.11-.01,2.71,0,2.61-.12,0,1.19.6,1,.5-.08-.25.9-.16,1.21-.08.17.24.81,0,.72-.17.06-.08.61-.27.78.03.08.01,1.12.19,1.2.16-.24-.03.95-.15.71-.22.13-.19.97-.02.85.07.07-.25.98.07,1.09.21-.12-.09.79-.13.77-.09-.03-.12,1.25.16,1.19.19-.02.16.86-.55.97-.33-.01.05.82.18.93.17-.19-.11.7.13.8.1-.03-.19,1.03,0,1.17.04-.02.16.88.03.8.14.03-.01.72-.04.73-.29-.22,0-.01-2.92-.06-2.9-.06.16.12-2.98,0-2.83-.01-.06.06-3.02.04-2.89.26.09-.19-2.96.02-2.97.03.02,0-2.93-.03-3.01-.02-.11,0-3.09.12-3.03.15-.13-.41-2.77-.24-2.79-.08.13.2-3.12.23-3.1.13-.05-.06-2.67.06-2.59-.24-.07-.34-2.61-.18-2.72-.03-.12.22-3.13.15-3.1-.03.04-.05-.14-.05-.41-.17.03-.29.04-.29.02.13.02-1.86-.11-1.91-.11-.11.21-1.73.03-1.85-.13h0Zm-274.62,4.45c.08.13.16.47-.04.53.04.23-.17.34-.14.19-.18-.1.25.5.12.54.13-.23.28.9.11.76-.16-.04-.09-.16-.16-.17.13.17-.2.7,0,.69.05.11.07.17-.04.22-.02.25.16.49.27.49-.28,0-.39.19-.39.19.06-.19.24.3.2.56.17-.04-.04,0,.04.29-.04.19-.19.4-.2.46-.02,0,.03.44-.1.51.06-.08-.23.28-.11.25.33-.17.33.43.26.47.04.02.03.2-.01.33-.03.39-.11.76.07,1.02-.05.57-.27.72-.41,1.37.12.4-.43,1.14-.27,1.47-.17.48-.57.84-.45,1.07-.28.47-.27.59-.4.94-.15.4-.65.47-.85.82-.15.5-.82.67-.81,1.1-.23.29-.4.66-.84,1-.54.46-.62.5-.98.6-.59.18-.7,1.05-1.09,1.21-.3.21-.68.22-1.17.37-.19.17-.78.58-1.05.66-.26.21-1.02.23-1.32.37-.49.18-.78.09-1.44.3-.46.06-.68.12-1.25.2-.21-.2-.99-.23-1.61-.26-.29.13-.17.07-.59.16-.31-.12-.61.03-.88.1-.35-.02-.64-.4-.71-.41-.13-.03-.35-.04-.81-.09-.23.06-.15-.05-.51-.16-.26-.17-.84-.17-.99-.28-.39-.25-.05-.56-.25-.59-.17.04-.44.05-.62.02-.03-.1-.35-.37-.4-.41-.33.1.01-.44-.16-.65-.21-.14-.42-.7-.78-.66.06.02.08-.2.12-.35.05-.29-.36-.47-.43-.79-.16-.53-.01-.08.06-.3-.01-.14-.2-.73-.26-.83.04-.42.1-.55.1-.71-.02-.23.08-.9.05-1.08-.22-.2.14-.68-.06-.97.3-.44.51-.33.44-.64.11,0-.24-.38.11-.7.26-.36.36-.45.39-.69.29-.1.23-.19.41-.55.09-.22.3-.67.4-.56.26-.13.04-.72.49-.83.22-.22.4-.09.92-.28.49-.24.46-.12.82-.36.23-.05.59-.62.93-.76.23-.24.82-.46,1.28-.51.09-.2.77-.08.88-.31.28-.17.73-.16,1.26-.25.41-.09.88-.27,1.39-.34.49-.15,1.25-.78,1.91-.67.11-.07.58.46.82.35.49,0,.3-.17.82-.42.32-.14.71,0,.93-.08.21-.08.47-.5.73-.36.03-.2.64-.04.98-.13.29.03.62-.18.7-.44.48-.11.39-.07.57,0,.12.03.7.29.78.22.09-.04.1-.53.38-.64.28-.27.22-.28.38-.16-.15-.09.49-.03.58-.24.3-.16.72.17.63.02.13.15-.28-.54.03-.62.08-.21.67.04.66-.1.06.04.16-.19.24-.15.09.09.27-.24.35-.37h0Zm208.36.2s.06,0,.07.03c.05-.07-.38.11-.5.1,0-.09,0-.16.13-.08.07.05.2-.04.29-.05h0Zm-117.86.08s.09-.01.16.03c.04-.07,0,.11.12.08.02.02.03.02.06.08.2-.12.06.26-.05.37.41-.05.09.4.19.28.16.16-.35.6-.17.58.13-.06.13.67.15.53-.13.05-.22.33-.18.24.12.15-.34.25-.05.35-.04.08.23.33.02.42-.05.03.4.29.13.35,0,.17-.42.57-.11.58,0,.06-.03.2-.11.21-.03-.04.05.36.12.5.04.06-.07.11-.22.22.08-.11.31.42.21.32.04.14-.05.76,0,.6-.14-.03.15.25.15.27-.02.48-.55,1.19-.41,1.4-.29.58.14,1.03.06,1.15-.11.42-.21.81-.37,1.28-.21.4-.31.51-.45.9-.32.33-.27,1.4-.64,1.37-.01.43-.5,1.14-.81,1.39-.33.27-.68-.09-.71.3-.24.09-.55.75-.88,1.04-.34.19-.56.52-.84.9-.31.44-.76.28-1.11.5-.27.27-.97.51-1.25.74-.15.19-.49.24-.81.54-.35.28-.92.35-1.49.52-.52.19-1.13.24-1.43.18-.49.23-.96.09-1.28.02-.58-.13-.94.1-1.32.24-.49.12-.42-.33-.87-.02-.42.04-.87-.04-.96-.04-.31-.02-.35-.13-.71-.26-.19-.32-.34-.21-.5-.2-.4-.31-.63.01-.77-.32.02-.19-.53,0-.82-.08-.17-.05-.13.05-.29-.27.04,0-.33-.38-.71-.58-.16.06-.09-.38-.23-.13-.37-.37-.45-.21-.39-.42-.39-.36-.57-.43-.55-.5.03-.27,0-.51-.23-.84.25-.25-.13-.35-.25-.71-.17-.19.06-.17-.1-.23.03-.42,0-.65.08-.99-.02-.24-.15-.97-.15-.99.29.03.52-.38.38-.73-.08-.32-.16-.19-.1-.66-.03-.12-.37-.67-.05-.98.08-.17.32-.6.41-.53-.07-.22.56-.51.57-.92.24-.12-.12-.27.11-.55.35-.34.29-.71.68-.71.16-.3.46-.11.79-.23.38.16.23-.68.6-.87.15-.01.26-.16.49-.28-.07-.02.69-.24,1.33-.35.45-.1.51-.27.92-.38.58.11.34-.41.81-.58.25-.29.97-.08,1.55-.26.48-.3.82-.38,1.45-.33.53-.14,1.1-.66,1.44-.28.51.04.65-.38,1.06-.44.2-.08.88-.14,1.12.14.26-.06.46-.4.65-.1.21-.25.95-.38,1.2-.39.22.09.53-.18.54-.32.23-.06.1-.22.48-.21.21-.04.73.23.74.04.2-.09.72.11.74-.17-.16.25.28-.15.47-.32.37.14.53-.44.66-.28.23-.24.59-.17.53-.13.17-.11-.03-.03.23-.17.17-.04-.07-.25.34-.34.16.03.38-.2.32-.27.17,0,.22-.22.34-.27h0Zm117.45.23c.06.2.16.51.24.59-.1-.05-.25.38-.05.23.18.01.09.71.01.51-.04.03-.07.09-.06.18.05.03-.13.25-.05.4.05,0,.07.37,0,.49.01.03.03.08.02.07,0-.12.39.2.28.32-.2.03.15,1.03.05.76-.08.23-.21.36-.19.16.04-.19-.17.66-.25.7.06.04-.36.39-.18.27.08-.22-.07.52.03.51-.06.01.17-.03.12.16-.2.16.28.69.38.74-.02.43-.41.52-.34,1-.18.22-.2.85-.3,1.2.04.36-.13.68-.34,1.06-.1.33.09.85-.32,1.24-.22.42-.37.94-.33,1.21-.46.22-.4.43-.72.87-.16.4-1.28.43-1.21.9-.45.11-.06.89-.39,1.1-.3.16-.87.31-1.04.52-.35.49-.99.81-1.45.83-.35.49-.38.6-.83.75-.44.41-.79.23-1.2.51-.24.18-.98.21-1.32.51-.25.13-1.15.16-1.38.33-.38.07-.73.25-1.3.24-.62.08-.96-.27-1.26-.17-.25.01-.85-.22-1.09,0-.41,0-.33.3-.85.06-.37.07-.62.12-.83-.21-.15.21-.21.07-.5-.25-.35-.22-.89-.13-1.03-.09-.13-.07-.04-.18-.24-.38-.1-.1-.28-.21-.56-.36-.06.21-.03.13-.26-.16-.2-.09-.57-.74-.58-.56-.2-.41-.53-.33-.66-.41-.13.13-.13-.24-.16-.42-.19-.31-.37-.55-.19-.88-.35.05-.37-.16-.26-.51-.08-.32-.32-.28-.31-.59.05-.25-.05-.55-.04-.69-.21-.27.21-.49.24-.87-.09-.37-.29-.39-.3-.71-.01-.43.32-.85.34-1.16-.12-.49-.24-.32-.1-.45-.08-.46-.14-.54.09-.81.23-.6.41-.4.53-.7.02-.27.74-.29.73-.53.36-.16.02-.46.12-.68.11-.2.43-.58.79-.61.3-.15.43-.38.62-.64.31-.31.75.15.88-.05.33-.19.89-1.15,1.13-1.03.51-.04.58-.11.88-.17.51.04.8-.24,1.16-.38.24-.27.85-.13,1.32-.27.26.05,1-.14,1.56-.29.64-.3,1.33-.09,1.71-.28.31-.08.61-.13.95-.15.36-.17.73-.14,1.02-.44.46-.32.52-.24.62-.04.5-.07.74-.47.85-.36.33-.23.44-.05.67-.1.48.03.64.2.68-.09.28.14.75-.4.85-.27.28-.1.31,0,.43-.03.15-.13.58-.49.79-.38.13-.23.53-.46.68-.37.3-.46.2-.15.36-.22.26-.24.49.17.59.17.02-.02.01-.48.09-.64.02-.02,0-.02.02-.04.01.04.03.08.1.13,0,.13.31-.24.54-.25h0Z"/>
    </g>
  </g>
</svg>