<?xml version="1.0" encoding="UTF-8"?>
<svg fill="ffffff" width="700pt" height="700pt" version="1.1" viewBox="0 0 700 300" xmlns="http://www.w3.org/2000/svg">
 <g>
  <path class="link-arrow" d="m363.54 282.1c4.6367-0.003906 9.0859-1.8516 12.363-5.1367l164.73-164.73v85.168c0 6.2539 3.3359 12.031 8.75 15.156 5.4141 3.125 12.086 3.125 17.5 0 5.4141-3.125 8.75-8.9023 8.75-15.156v-127.4c0-4.6406-1.8438-9.0938-5.125-12.375s-7.7344-5.125-12.375-5.125h-127.4c-6.2539 0-12.031 3.3359-15.156 8.75s-3.125 12.086 0 17.5 8.9023 8.75 15.156 8.75h85.168l-165.9 164.73c-3.2773 3.2812-5.1172 7.7305-5.1172 12.367 0 4.6406 1.8398 9.0859 5.1211 12.367 3.2773 3.2812 7.7227 5.1289 12.363 5.1328z"/>
  <path d="m560 298.9c-4.6406 0-9.0938 1.8438-12.375 5.1289-3.2812 3.2812-5.125 7.7305-5.125 12.371v144.67c0 3.0312-1.2031 5.9414-3.3477 8.0859-2.1445 2.1445-5.0547 3.3477-8.0859 3.3477h-362.13c-6.3164 0-11.434-5.1172-11.434-11.434v-362.13c0-6.3164 5.1172-11.434 11.434-11.434h136.96c6.2539 0 12.031-3.3359 15.156-8.75s3.125-12.086 0-17.5-8.9023-8.75-15.156-8.75h-136.96c-12.379 0-24.246 4.918-33 13.668-8.75 8.7539-13.668 20.621-13.668 33v361.9c0 12.379 4.918 24.246 13.668 33 8.7539 8.75 20.621 13.668 33 13.668h362.13c12.379 0 24.246-4.918 33-13.668 8.75-8.7539 13.668-20.621 13.668-33v-144.67c0-4.6797-1.875-9.168-5.207-12.457-3.3359-3.2891-7.8477-5.1055-12.527-5.043z"/>
 </g>
</svg>
